<?xml version="1.0" standalone="no"?>
<!DOCTYPE svg PUBLIC "-//W3C//DTD SVG 20010904//EN"
 "http://www.w3.org/TR/2001/REC-SVG-20010904/DTD/svg10.dtd">
<svg version="1.0" xmlns="http://www.w3.org/2000/svg"
 width="624.000000pt" height="624.000000pt" viewBox="0 0 624.000000 624.000000"
 preserveAspectRatio="xMidYMid meet">
<metadata>
Created by potrace 1.14, written by Peter Selinger 2001-2017
</metadata>
<g transform="translate(0.000000,624.000000) scale(0.100000,-0.100000)"
fill="#000000" stroke="none">
<path d="M2325 5650 c-100 -21 -145 -87 -145 -212 l0 -73 -62 0 c-35 0 -69 -4
-75 -9 -7 -4 -13 -5 -13 -2 0 17 -78 -39 -100 -71 -20 -30 -25 -49 -25 -99 0
-55 4 -67 31 -101 43 -53 88 -73 172 -75 l70 -1 4 -86 c4 -97 20 -133 73 -170
82 -56 202 -29 252 57 21 36 26 58 27 120 l1 77 40 1 c117 4 147 14 188 59 40
44 57 107 45 165 -8 35 -49 90 -80 106 -43 23 -51 25 -127 27 l-65 2 -2 75
c-3 79 -20 135 -51 160 -57 47 -102 61 -158 50z"/>
<path d="M4895 4929 c-75 -29 -112 -90 -113 -189 0 -36 -1 -70 -1 -75 -1 -6
-34 -11 -75 -12 -43 -1 -86 -8 -103 -16 -87 -46 -122 -151 -79 -240 30 -65 77
-90 179 -97 l79 -5 2 -80 c1 -64 6 -88 24 -117 51 -82 142 -109 227 -68 81 39
99 82 104 253 1 14 11 17 65 17 81 0 123 15 163 58 77 82 62 198 -34 266 -35
24 -52 29 -115 31 -40 1 -75 3 -78 4 -3 0 -5 36 -6 79 0 98 -26 149 -89 181
-58 29 -94 31 -150 10z"/>
<path d="M2889 4405 c-2 -2 -32 -6 -66 -9 -33 -3 -83 -10 -110 -16 -26 -5 -60
-12 -75 -15 -69 -13 -88 -18 -171 -46 -49 -16 -92 -29 -97 -29 -18 0 -227 -99
-305 -144 -233 -136 -454 -330 -597 -526 -26 -36 -51 -69 -56 -75 -11 -14 -79
-128 -112 -190 -89 -169 -173 -423 -194 -590 -6 -46 8 -108 29 -129 46 -45 -3
-16 -219 134 -68 46 -193 155 -272 235 -117 118 -176 214 -180 293 -2 36 3 65
12 82 16 26 85 80 107 84 7 1 17 4 22 7 15 9 105 37 140 44 120 24 255 37 405
40 96 2 187 8 202 14 31 12 76 54 96 89 16 28 18 107 4 143 -13 33 -53 74 -93
95 -58 30 -427 17 -632 -22 -294 -55 -484 -170 -569 -342 -18 -37 -33 -69 -34
-72 0 -3 -4 -27 -9 -55 -9 -55 -10 -116 -1 -155 3 -14 8 -38 12 -55 10 -53 66
-169 117 -245 62 -93 189 -230 312 -341 121 -107 376 -288 572 -404 82 -49 88
-56 99 -125 2 -14 7 -36 10 -50 3 -14 7 -32 9 -40 17 -87 151 -418 187 -465 5
-5 31 -46 59 -90 29 -44 55 -82 59 -85 4 -3 11 -12 16 -22 24 -44 185 -215
281 -299 62 -54 179 -139 192 -139 6 0 11 -4 11 -8 0 -8 15 -17 145 -87 62
-33 206 -97 250 -111 118 -37 209 -63 236 -68 60 -10 92 -17 98 -21 30 -18
430 -27 553 -12 64 8 83 11 138 22 109 22 99 20 120 27 8 3 42 13 75 22 66 19
209 72 240 89 11 6 25 12 30 13 18 4 200 107 203 116 2 4 8 8 13 8 7 0 97 57
109 70 3 3 25 21 50 40 24 19 63 52 85 72 22 21 47 36 55 33 14 -4 109 -13
225 -21 74 -5 421 -5 484 0 69 6 149 16 181 21 14 3 39 7 55 10 17 3 40 7 53
10 12 3 32 7 45 10 46 10 132 39 145 48 6 5 12 7 12 3 0 -18 177 87 245 145
75 66 134 197 139 310 13 265 -175 536 -598 862 -55 43 -112 83 -126 89 -39
17 -102 21 -135 8 -16 -6 -32 -11 -33 -10 -2 1 -19 -15 -37 -35 -75 -85 -66
-195 22 -262 232 -178 401 -333 463 -423 13 -19 27 -37 30 -40 13 -10 49 -96
58 -137 7 -28 6 -45 -1 -52 -6 -6 -8 -11 -3 -11 9 0 -33 -61 -54 -77 -17 -14
-118 -63 -140 -69 -164 -41 -248 -49 -510 -49 -204 1 -324 6 -436 20 -213 26
-294 38 -488 71 -16 3 -32 6 -35 8 -3 2 -26 7 -51 10 -52 7 -85 13 -108 20 -9
3 -33 8 -52 11 -49 9 -279 63 -315 74 -16 6 -41 12 -55 15 -22 5 -104 27 -205
56 -16 5 -48 14 -70 20 -22 6 -119 37 -215 68 -96 31 -177 56 -180 57 -3 1
-12 4 -20 7 -42 16 -56 21 -65 24 -18 4 -297 111 -385 147 -78 32 -182 77
-335 145 -133 59 -475 234 -590 303 -16 10 -49 28 -73 40 -51 27 -79 55 -40
40 14 -5 31 -5 38 -1 8 5 17 7 22 4 13 -8 85 34 107 62 20 26 35 69 44 129 6
35 35 153 44 175 8 20 14 42 15 58 1 6 5 12 10 12 4 0 8 7 8 15 0 26 87 204
142 289 47 74 109 158 148 197 8 9 27 29 41 45 41 46 119 116 189 171 68 52
213 143 229 143 5 0 11 4 13 8 4 11 156 76 252 107 99 32 263 68 276 60 6 -3
10 -3 10 2 0 25 355 20 500 -7 30 -6 69 -12 86 -14 67 -10 286 -91 395 -148
179 -92 375 -248 485 -385 22 -26 45 -52 52 -56 6 -4 12 -14 12 -22 0 -7 4
-15 9 -17 14 -5 95 -136 141 -227 34 -70 124 -300 120 -309 -1 -1 3 -26 9 -55
29 -145 35 -208 34 -352 -1 -71 -4 -148 -8 -170 -29 -198 -73 -343 -163 -533
-50 -105 -33 -182 53 -248 41 -31 109 -36 167 -11 45 19 104 98 133 177 1 3 9
21 17 40 19 44 30 72 34 85 1 6 12 35 23 65 23 63 66 233 76 300 4 25 8 56 10
70 19 128 19 397 0 490 -3 14 -7 43 -11 65 -11 80 -53 242 -89 340 -141 392
-409 731 -760 964 -99 65 -178 108 -330 176 -52 24 -235 85 -235 78 0 -3 -6
-1 -12 4 -7 6 -29 13 -48 17 -19 3 -57 10 -85 16 -27 6 -66 13 -85 16 -19 4
-46 8 -60 11 -33 6 -416 14 -421 8z m-1139 -2528 c41 -20 125 -56 185 -81 61
-26 119 -51 130 -56 11 -5 45 -19 75 -31 30 -12 69 -27 85 -34 31 -14 45 -19
205 -78 52 -19 102 -37 110 -40 92 -37 539 -179 685 -218 128 -34 460 -117
490 -122 17 -3 64 -13 104 -21 41 -9 85 -17 98 -18 39 -4 20 -21 -83 -74 -126
-64 -279 -121 -379 -140 -11 -2 -31 -6 -45 -9 -99 -19 -189 -28 -295 -29 -110
0 -281 15 -327 30 -9 2 -25 6 -35 8 -146 29 -361 116 -481 197 -24 16 -45 29
-48 29 -6 0 -77 52 -129 96 -169 141 -309 319 -400 509 -21 44 -42 88 -47 97
-13 29 -10 39 10 29 9 -5 51 -25 92 -44z"/>
<path d="M5595 4058 c-71 -35 -103 -102 -100 -205 1 -29 -1 -53 -4 -54 -3 0
-37 -1 -76 -3 -74 -3 -106 -13 -141 -44 -55 -47 -73 -146 -39 -212 33 -64 87
-93 178 -96 37 -1 71 -5 75 -8 3 -4 7 -36 8 -72 2 -124 65 -195 174 -198 47
-1 64 4 93 25 72 51 85 78 86 189 l1 65 73 1 c48 0 85 6 110 19 101 48 125
191 48 279 -30 34 -74 49 -149 52 -40 1 -75 3 -77 5 -2 2 -4 36 -6 74 -4 129
-61 193 -179 201 -19 1 -53 -7 -75 -18z"/>
</g>
</svg>
